<svg width="32" height="32" viewBox="0 0 32 32" fill="none" xmlns="http://www.w3.org/2000/svg">
  <defs>
    <linearGradient id="logo-gradient" x1="0%" y1="0%" x2="100%" y2="100%">
      <stop offset="0%" style="stop-color:#FF6B6B;stop-opacity:1" />
      <stop offset="50%" style="stop-color:#4ECDC4;stop-opacity:1" />
      <stop offset="100%" style="stop-color:#45B7D1;stop-opacity:1" />
    </linearGradient>
  </defs>
  <rect width="32" height="32" rx="8" fill="url(#logo-gradient)"/>
  <path d="M10 12C10 10.8954 10.8954 10 12 10H14C15.1046 10 16 10.8954 16 12V14C16 15.1046 15.1046 16 14 16H12C10.8954 16 10 15.1046 10 14V12Z" fill="white"/>
  <path d="M18 16C18 14.8954 18.8954 14 20 14H22C23.1046 14 24 14.8954 24 16V18C24 19.1046 23.1046 20 22 20H20C18.8954 20 18 19.1046 18 18V16Z" fill="white"/>
  <circle cx="16" cy="22" r="3" fill="white"/>
</svg>